# xmcd
#
# Track frame offsets:
#       150
#       19147
#       35644
#       56174
#       74577
#       85879
#       101014
#       117471
#       131836
#       147877
#
# Disc length: 2134 seconds
#
# Revision: 0
# Processed by: cddbd v1.4PL0 Copyright (c) Steve Scherf et al.
#
# Submitted via: MusicManager v5.1.0.0
#
DISCID=9808540a
DTITLE=Willie Nelson - Night And Day
DYEAR=1900
DGENRE=country
TTITLE0=Vous Et Moi
TTITLE1=Nuages
TTITLE2=Night And Day
TTITLE3=All The Things You Are
TTITLE4=Sweet Georgia Brown
TTITLE5=Gypsy
TTITLE6=Honysuckle Rose
TTITLE7=Over The Waves
TTITLE8=September In The Rain
TTITLE9=Bandera
EXTD=
EXTT0=
EXTT1=
EXTT2=
EXTT3=
EXTT4=
EXTT5=
EXTT6=
EXTT7=
EXTT8=
EXTT9=
PLAYORDER=
